<svg xmlns="http://www.w3.org/2000/svg" width="60.668" height="80"  xmlns:v="https://vecta.io/nano"><defs><linearGradient id="A" x1=".5" x2=".5" y2="1"><stop offset="0" stop-color="#ff9e37"/><stop offset="1" stop-color="#f36621"/></linearGradient></defs><g fill="url(#A)"><path d="M56.982 44.365L45.037 25.64a5.31 5.31 0 0 0-.494-9.639L48.162 3.35c.156-.546.002-1.134-.4-1.535-2.413-2.407-6.318-2.407-8.731 0a3.03 3.03 0 0 1-2.156.893 3.03 3.03 0 0 1-2.159-.9l-.005-.007c-2.408-2.399-6.301-2.406-8.717-.014l-.045.045c-1.193 1.178-3.112 1.174-4.3-.008l-.011-.011c-2.413-2.407-6.318-2.407-8.731 0-.403.401-.556.989-.4 1.536l3.626 12.652a5.31 5.31 0 0 0-.5 9.641L3.686 44.365c-4.551 7.134-4.852 16.182-.784 23.603s11.857 12.033 20.32 12.033h14.221c8.462 0 16.251-4.613 20.319-12.033s3.768-16.468-.783-23.602zM19.425 4.025l.011.011a6.19 6.19 0 0 0 8.717.014l.045-.045c1.195-1.181 3.119-1.176 4.307.011l.008.008c2.413 2.407 6.318 2.407 8.731 0 .959-.957 2.434-1.167 3.623-.517l-3.465 12.114H19.276L15.803 3.508c1.188-.65 2.663-.439 3.622.517zm35.6 62.44c-3.477 6.462-10.244 10.469-17.582 10.41H23.222a20.05 20.05 0 0 1-16.9-30.83l12.63-19.8h4.352c.848-.021 1.523-.715 1.523-1.562s-.676-1.541-1.523-1.562h-5.21a2.19 2.19 0 0 1-2.141-2.187 2.19 2.19 0 0 1 2.141-2.187h24.481a2.19 2.19 0 0 1 1.934 3.295 2.19 2.19 0 0 1-1.934 1.08h-5.209c-.568-.014-1.098.28-1.386.77s-.288 1.096 0 1.586.819.784 1.386.77h4.352l12.63 19.8c3.994 6.154 4.255 14.013.678 20.419z"/><path d="M33.09 51.031l-1.192-.433v-7.083a6.42 6.42 0 0 1 1.8.839c.69.519 1.671.38 2.19-.31s.38-1.671-.31-2.19c-1.102-.772-2.355-1.302-3.677-1.556v-1.555c.014-.568-.28-1.098-.77-1.386s-1.096-.288-1.586 0-.784.819-.77 1.386v1.544c-.27.053-.537.12-.8.2a6.26 6.26 0 0 0-4.29 4.908 5.52 5.52 0 0 0 1.807 5.44 15.04 15.04 0 0 0 3.288 1.868v9.062c-1.245-.064-2.442-.5-3.437-1.25-.467-.323-1.073-.367-1.581-.115s-.841.76-.868 1.327.256 1.104.738 1.403c1.496 1.091 3.286 1.707 5.137 1.767v1.616c.021.848.715 1.523 1.563 1.523s1.541-.676 1.563-1.523v-1.778c2.983-.689 5.253-3.115 5.742-6.137a6.61 6.61 0 0 0-4.547-7.567zm-5.677-2.654c-.645-.618-.9-1.539-.665-2.4a3.18 3.18 0 0 1 2.024-2.462v5.723a9.36 9.36 0 0 1-1.359-.861zm7.145 9.7a4.48 4.48 0 0 1-2.66 3.385v-7.538l.151.054c1.779.501 2.872 2.286 2.509 4.098z"/><path d="M30.335 26.247c.746.003 1.39-.523 1.538-1.254s-.243-1.465-.931-1.752-1.484-.047-1.899.573-.334 1.447.193 1.975c.293.291.688.455 1.1.458z"/></g></svg>