<svg xmlns="http://www.w3.org/2000/svg" width="80" height="80"  xmlns:v="https://vecta.io/nano"><defs><linearGradient id="A" x1=".5" x2=".5" y2="1"><stop offset="0" stop-color="#ff9e37"/><stop offset="1" stop-color="#f36621"/></linearGradient></defs><path d="M38.9 79.63a4.269 4.269 0 0 1-2.5-3.259L34.872 66.5q-.288.057-.577.1a6.161 6.161 0 0 1-5.4-1.741l-13.75-13.75A6.217 6.217 0 0 1 13.4 45.7l.1-.572L3.632 43.6A4.28 4.28 0 0 1 .715 37l7.992-12.087a6.173 6.173 0 0 1 4.712-2.772l11.717-.9.184-.23A60.771 60.771 0 0 1 43.069 6.29C55.067.083 67.614-.256 74.03.094a6.216 6.216 0 0 1 5.876 5.877c.35 6.412.011 18.959-6.2 30.957A60.85 60.85 0 0 1 59 54.677l-.23.189-.908 11.717a6.189 6.189 0 0 1-2.777 4.717L43 79.287a4.265 4.265 0 0 1-2.364.713 4.315 4.315 0 0 1-1.736-.37zm.548-14.219l1.487 9.62L52.5 67.385a1.534 1.534 0 0 0 .686-1.165l.589-7.632a52.543 52.543 0 0 1-14.328 6.823zM18.021 46.476a1.52 1.52 0 0 0 .436 1.32l13.75 13.75a1.52 1.52 0 0 0 1.319.432 40.486 40.486 0 0 0 6.956-1.834L19.855 39.512a40.475 40.475 0 0 0-1.834 6.964zm27.2-36.022a55.923 55.923 0 0 0-16.3 13.554 54.662 54.662 0 0 0-7.1 10.85l23.318 23.315a53.626 53.626 0 0 0 10.85-7.094 55.931 55.931 0 0 0 13.558-16.3c5.7-11.011 6-22.612 5.678-28.548a1.538 1.538 0 0 0-1.453-1.456 60.37 60.37 0 0 0-3.247-.087 55.808 55.808 0 0 0-25.3 5.766zM13.779 26.815a1.517 1.517 0 0 0-1.162.682L4.971 39.063l9.62 1.491a52.53 52.53 0 0 1 6.82-14.329zM.688 79.315a2.347 2.347 0 0 1 0-3.315L15.4 61.288a2.343 2.343 0 1 1 3.313 3.312L4 79.315a2.344 2.344 0 0 1-3.312 0zm14.07-.048a2.345 2.345 0 0 1 0-3.314l7.653-7.653a2.343 2.343 0 0 1 3.314 3.314l-7.653 7.653a2.345 2.345 0 0 1-3.314 0zM.735 65.239a2.345 2.345 0 0 1 0-3.314l7.653-7.653A2.345 2.345 0 1 1 11.7 57.59l-7.651 7.649a2.337 2.337 0 0 1-3.314 0zm45.779-31.755a11.731 11.731 0 1 1 8.286 3.427 11.631 11.631 0 0 1-8.286-3.427zm3.314-13.256a7.041 7.041 0 1 0 4.972-2.056 6.992 6.992 0 0 0-4.972 2.056z" fill="url(#A)"/></svg>